<?xml version="1.0" encoding="UTF-8"?>
<svg xmlns="http://www.w3.org/2000/svg" viewBox="0 0 1080 1920" width="1080" height="1920">
<defs>
<radialGradient id="bg" cx="50%" cy="40%" r="80%"><stop offset="0%" stop-color="#06101f"/><stop offset="100%" stop-color="#020610"/></radialGradient>
<linearGradient id="k" x1="0%" y1="0%" x2="100%" y2="100%"><stop offset="0%" stop-color="#4dd4ff"/><stop offset="100%" stop-color="#2563eb"/></linearGradient>
</defs>
<rect width="1080" height="1920" fill="url(#bg)"/>
<g opacity="0.18" stroke="#0f2540" stroke-width="1">
<path d="M0 0v1920M90 0v1920M180 0v1920M270 0v1920M360 0v1920M450 0v1920M540 0v1920M630 0v1920M720 0v1920M810 0v1920M900 0v1920M990 0v1920M1080 0v1920"/>
<path d="M0 0h1080M0 90h1080M0 180h1080M0 270h1080M0 360h1080M0 450h1080M0 540h1080M0 630h1080M0 720h1080M0 810h1080M0 900h1080M0 990h1080M0 1080h1080M0 1170h1080M0 1260h1080M0 1350h1080M0 1440h1080M0 1530h1080M0 1620h1080M0 1710h1080M0 1800h1080"/>
</g>
<g transform="translate(90,280)"><rect width="350" height="48" rx="24" fill="rgba(77,212,255,0.12)" stroke="rgba(77,212,255,0.4)" stroke-width="2"/><circle cx="28" cy="24" r="6" fill="#4dd4ff"/><text x="50" y="32" font-family="Inter,Arial,sans-serif" font-size="20" font-weight="800" letter-spacing="3" fill="#4dd4ff">DADO QUE INCOMODA</text></g>
<text x="90" y="500" font-family="Inter,Arial,sans-serif" font-size="44" font-weight="500" fill="#8b9bb4">Em 199 das últimas 295</text>
<text x="90" y="560" font-family="Inter,Arial,sans-serif" font-size="44" font-weight="500" fill="#8b9bb4">reuniões com donos</text>
<text x="90" y="620" font-family="Inter,Arial,sans-serif" font-size="44" font-weight="500" fill="#8b9bb4">de restaurante,</text>
<text x="90" y="1080" font-family="Inter,Arial,sans-serif" font-size="280" font-weight="900" fill="#4dd4ff">67%</text>
<text x="90" y="1240" font-family="Inter,Arial,sans-serif" font-size="42" font-weight="700" fill="#ffffff">começaram a conversa com</text>
<text x="90" y="1300" font-family="Inter,Arial,sans-serif" font-size="42" font-weight="700" fill="#ffffff">a MESMA frase.</text>
<text x="90" y="1420" font-family="Inter,Arial,sans-serif" font-size="32" font-weight="400" fill="#8b9bb4">(você provavelmente já falou ela essa semana.)</text>
<g transform="translate(430,1750)">
<rect width="64" height="64" rx="12" fill="url(#k)"/>
<text x="32" y="48" font-family="Inter,Arial,sans-serif" font-size="42" font-weight="900" fill="#ffffff" text-anchor="middle">K</text>
<text x="84" y="46" font-family="Inter,Arial,sans-serif" font-size="32" font-weight="700" fill="#ffffff">konclui<tspan fill="#4dd4ff">.</tspan></text>
</g>
</svg>
